# AST/ASF file generated using VICON BodyLanguage
# -----------------------------------------------
:version 1.10
:name VICON
:units
  mass 1.0
  length 0.45
  angle deg
:documentation
   .ast/.asf automatically generated from VICON data using
   VICON BodyBuilder and BodyLanguage model FoxedUp or BRILLIANT.MOD
:root
   order TX TY TZ RX RY RZ
   axis XYZ
   position 0 0 0  
   orientation 0 0 0 
:bonedata
  begin
     id 1 
     name lhipjoint
     direction 0.650112 -0.723553 0.232005 
     length 2.45805 
     axis 0 0 0  XYZ
  end
  begin
     id 2 
     name lfemur
     direction 0.34202 -0.939693 0  
     length 7.00073  
     axis 0 0 20  XYZ
    dof rx ry rz
    limits (-160.0 20.0)
           (-70.0 70.0)
           (-60.0 70.0)
  end
  begin
     id 3 
     name ltibia
     direction 0.34202 -0.939693 0   
     length 7.8748   
     axis 0 0 20   XYZ
    dof rx
    limits (-10.0 170.0)
  end
  begin
     id 4 
     name lfoot
     direction 0.0542825 -0.14914 0.987325   
     length 1.75978   
     axis -90 7.62852e-016 20   XYZ
    dof rx rz
    limits (-45.0 90.0)
           (-70.0 20.0)
  end
  begin
     id 5 
     name ltoes
     direction 1.53509e-011 -4.21906e-011 1   
     length 0.893912   
     axis -90 7.62852e-016 20   XYZ
    dof rx
    limits (-90.0 20.0)
  end
  begin
     id 6 
     name rhipjoint
     direction -0.637897 -0.733345 0.235145   
     length 2.42522  
     axis 0 0 0  XYZ 
  end
  begin
     id 7 
     name rfemur
     direction -0.34202 -0.939693 0   
     length 7.02549   
     axis 0 0 -20   XYZ
    dof rx ry rz
    limits (-160.0 20.0)
           (-70.0 70.0)
           (-70.0 60.0)
  end
  begin
     id 8 
     name rtibia
     direction -0.34202 -0.939693 0   
     length 7.71512   
     axis 0 0 -20   XYZ
    dof rx
    limits (-10.0 170.0)
 end
 begin
     id 9 
     name rfoot
     direction -0.0822618 -0.226012 0.970645   
     length 1.90014  
     axis -90 -7.62852e-016 -20   XYZ
    dof rx rz
    limits (-45.0 90.0)
           (-20.0 70.0)
  end
  begin
     id 10 
     name rtoes
     direction -1.53542e-011 -4.21872e-011 1   
     length 0.957341   
     axis -90 -7.62852e-016 -20   XYZ
    dof rx
    limits (-90.0 20.0)
  end
  begin
     id 11 
     name lowerback
     direction -0.0022947 0.999774 -0.0211557   
     length 1.89909   
     axis 0 0 0   XYZ
    dof rx ry rz
    limits (-20.0 45.0)
           (-30.0 30.0)
           (-30.0 30.0)
  end
  begin
     id 12 
     name upperback
     direction 0.0107737 0.998635 0.0511027   
     length 1.8853   
     axis 0 0 0   XYZ
    dof rx ry rz
    limits (-20.0 45.0)
           (-30.0 30.0)
           (-30.0 30.0)
  end
  begin
     id 13 
     name thorax
     direction 0.011824 0.998136 0.0598754   
     length 1.88911   
     axis 0 0 0   XYZ
    dof rx ry rz
    limits (-20.0 45.0)
           (-30.0 30.0)
           (-30.0 30.0)
  end
  begin
     id 14 
     name lowerneck
     direction -0.0685355 0.990319 0.120714   
     length 1.91222   
     axis 0 0 0   XYZ
    dof rx ry rz
    limits (-20.0 45.0)
           (-30.0 30.0)
           (-30.0 30.0)
  end
  begin
     id 15 
     name upperneck
     direction 0.0886204 0.955665 -0.280805   
     length 1.92526   
     axis 0 0 0   XYZ
    dof rx ry rz
    limits (-20.0 45.0)
           (-30.0 30.0)
           (-30.0 30.0)
  end
  begin
     id 16
     name head
     direction 0.0233423 0.993502 -0.111393  
     length 1.96056  
     axis 0 0 0   XYZ
    dof rx ry rz
    limits (-20.0 45.0)
           (-30.0 30.0)
           (-30.0 30.0)
  end
  begin
     id 17 
     name lclavicle
     direction 0.941873 0.32922 0.0670041  
     length 3.31705  
     axis 0 0 0   XYZ
    dof ry rz
    limits (-20.0 10.0)
           (0.0 20.0)
  end
  begin
     id 18 
     name lhumerus
     direction 1 -4.4898e-011 3.38707e-028   
     length 5.29277   
     axis 180 -30 -90   XYZ
    dof rx ry rz
    limits (-60.0 90.0)
           (-90.0 90.0)
           (-90.0 90.0)
  end
  begin
     id 19
     name lradius
     direction 1 -4.48952e-011 1.63213e-028   
     length 2.85226   
     axis 180 -30 -90   XYZ
    dof rx
    limits (-10.0 170.0)
  end
  begin
     id 20
     name lwrist
     direction 1 -4.49001e-011 1.27856e-027   
     length 1.42613   
     axis -1.61767e-015 90 90   XYZ
    dof ry
    limits (-180.0 0.0)
 end
  begin
     id 21 
     name lhand
     direction 1 -4.48976e-011 2.55931e-027   
     length 0.602097   
     axis -1.63363e-015 90 90   XYZ
    dof rx rz
    limits (-90.0 90.0)
           (-45.0 45.0)
  end
  begin
     id 22 
     name lfingers
     direction 1 -4.48986e-011 5.11684e-027   
     length 0.485426   
     axis -3.26723e-015 90 90   XYZ
    dof rx
    limits (0.0 90.0)
  end
  begin
     id 23
     name lthumb
     direction 0.707107 -6.34915e-011 0.707107   
     length 0.696978   
     axis -90 45 -2.25915e-014   XYZ
    dof rx rz
    limits (-45.0 45.0)
           (-45.0 45.0)
  end
  begin
     id 24 
     name rclavicle
     direction -0.939974 0.327078 0.0973096   
     length 3.10337  
     axis 0 0 0   XYZ 
    dof ry rz
    limits (-10.0 20.0)
           (-20.0 0.0)
  end
  begin
     id 25 
     name rhumerus
     direction -1 -4.48975e-011 1.83745e-027  
     length 5.13304   
     axis 180 30 90   XYZ
    dof rx ry rz
    limits (-90.0 60.0)
           (-90.0 90.0)
           (-90.0 90.0)
  end
  begin
     id 26 
     name rradius
     direction -1 -4.48977e-011 7.1775e-029   
     length 2.74305   
     axis 180 30 90   XYZ
    dof rx
    limits (-10.0 170.0)
  end
  begin
     id 27 
     name rwrist
     direction -1 -4.48977e-011 1.27963e-027   
     length 1.37152   
     axis -1.61767e-015 -90 -90   XYZ
    dof ry
    limits (-180.0 0.0)
  end
  begin
     id 28
     name rhand
     direction -1 -4.4888e-011 2.56782e-027   
     length 0.767976   
     axis -1.63363e-015 -90 -90   XYZ
    dof rx rz
    limits (-90.0 90.0)
           (-45.0 45.0)
  end
  begin
     id 29
     name rfingers
     direction -1 -4.48947e-011 5.12384e-027   
     length 0.619162   
     axis -3.26723e-015 -90 -90   XYZ
    dof rx
    limits (0.0 90.0)
  end
  begin
     id 30
     name rthumb
     direction -0.707107 -6.34857e-011 0.707107   
     length 0.888997   
     axis -90 -45 2.25915e-014   XYZ
    dof rx rz
    limits (-45.0 45.0)
           (-45.0 45.0)
  end
:hierarchy
  begin
    root lhipjoint rhipjoint lowerback
    lhipjoint lfemur
    lfemur ltibia
    ltibia lfoot
    lfoot ltoes
    rhipjoint rfemur
    rfemur rtibia
    rtibia rfoot
    rfoot rtoes
    lowerback upperback
    upperback thorax
    thorax lowerneck lclavicle rclavicle
    lowerneck upperneck
    upperneck head
    lclavicle lhumerus
    lhumerus lradius
    lradius lwrist
    lwrist lhand lthumb
    lhand lfingers
    rclavicle rhumerus
    rhumerus rradius
    rradius rwrist
    rwrist rhand rthumb
    rhand rfingers
  end

#!OML:ASF F:\VICON\USERDATA\INSTALL\rory3\rory3.ASF
:FULLY-SPECIFIED
:DEGREES
69
root 0.182562 17.4899 0.408517 5.99793 2.51946 -1.39164
lowerback -3.5836 -0.223102 -1.54448
upperback -3.14733 -0.245211 2.09768
thorax -1.20793 -0.0728448 3.01652
lowerneck -11.4656 -11.119 -18.2283
upperneck 20.1154 -15.8929 16.8399
head 11.3232 -7.18635 6.77542
rclavicle 7.20594e-016 3.57812e-015
rhumerus -33.4406 -0.486019 -86.6792
rradius 23.0412
rwrist 29.7644
rhand -10.5618 12.3564
rfingers 7.12502
rthumb 15.4426 -17.0467
lclavicle 7.20594e-016 3.57812e-015
lhumerus -31.5459 -1.03761 93.1218
lradius 15.8263
lwrist -25.5727
lhand -11.5726 19.685
lfingers 7.12502
lthumb 14.4688 49.1606
rfemur 1.43082 9.20281 18.9101
rtibia 0
rfoot -7.01255 -9.2413
rtoes -12.3411
lfemur -7.98909 -21.9145 -15.3315
ltibia 14.635
lfoot -13.152 14.7971
ltoes -17.736
70
root 0.180635 17.4894 0.408429 5.97847 2.50853 -1.38806
lowerback -3.54772 -0.228436 -1.56368
upperback -3.12995 -0.252379 2.08534
thorax -1.20961 -0.0764118 3.01447
lowerneck -11.4561 -11.1102 -18.1784
upperneck 20.0449 -15.885 16.8548
head 11.2903 -7.17888 6.77253
rclavicle -5.71506e-016 -3.18055e-015
rhumerus -33.487 -0.482624 -86.7177
rradius 23.1434
rwrist 29.6149
rhand -10.5972 12.3319
rfingers 7.12502
rthumb 15.4085 -17.0738
lclavicle -5.71506e-016 -3.18055e-015
lhumerus -31.5536 -0.851992 92.9974
lradius 15.8178
lwrist -25.7396
lhand -11.4849 19.4946
lfingers 7.12502
lthumb 14.5533 48.9641
rfemur 1.45413 9.21395 18.9148
rtibia 4.77083e-015
rfoot -7.05049 -9.24229
rtoes -12.2361
lfemur -8.01858 -21.9164 -15.2863
ltibia 14.6821
lfoot -13.0287 14.842
ltoes -18.4581
71
root 0.1803 17.4893 0.408062 5.95026 2.48952 -1.4281
lowerback -3.48503 -0.251168 -1.53309
upperback -3.11582 -0.283844 2.10535
thorax -1.22809 -0.0924579 3.01727
lowerneck -11.4804 -11.0696 -18.1757
upperneck 20.0266 -15.8245 16.8747
head 11.2774 -7.14848 6.79038
rclavicle -2.39784e-015 -4.77083e-015
rhumerus -33.5056 -0.368506 -86.7689
rradius 23.1935
rwrist 29.476
rhand -10.4942 12.2331
rfingers 7.12502
rthumb 15.5077 -17.165
lclavicle -2.39784e-015 -4.77083e-015
lhumerus -31.5416 -0.497153 92.8367
lradius 15.7737
lwrist -25.9855
lhand -11.4988 19.3091
lfingers 7.12502
lthumb 14.54 48.7795
rfemur 1.4755 9.23781 18.9659
rtibia 7.95139e-015
rfoot -7.03284 -9.27584
rtoes -12.2771
lfemur -8.02061 -21.9094 -15.2242
ltibia 14.719
lfoot -13.0633 14.9322
ltoes -18.6746
72
root 0.180185 17.4896 0.406211 5.92002 2.47184 -1.39991
lowerback -3.40139 -0.273405 -1.58542
upperback -3.10894 -0.312862 2.12319
thorax -1.26571 -0.10551 3.06483
lowerneck -11.4935 -11.029 -18.211
upperneck 20.0302 -15.7571 16.8808
head 11.2711 -7.11947 6.81158
rclavicle 6.05051e-015 4.37326e-015
rhumerus -33.5014 -0.30194 -86.7598
rradius 23.1549
rwrist 29.4864
rhand -10.376 12.1979
rfingers 7.12502
rthumb 15.6215 -17.1913
lclavicle 6.05051e-015 4.37326e-015
lhumerus -31.5443 -0.186807 92.7403
lradius 15.7599
lwrist -26.192
lhand -11.4022 19.4068
lfingers 7.12502
lthumb 14.633 48.8706
rfemur 1.50226 9.25293 18.9382
rtibia 1.11319e-014
rfoot -7.01793 -9.28261
rtoes -11.8127
lfemur -7.98457 -21.9188 -15.2889
ltibia 14.7446
lfoot -13.193 14.9811
ltoes -18.3356
73
root 0.178022 17.4898 0.403253 5.91315 2.45415 -1.41956
lowerback -3.31923 -0.271913 -1.60048
upperback -3.109 -0.310945 2.14451
thorax -1.31173 -0.103471 3.09576
lowerneck -11.4951 -11.02 -18.2482
upperneck 19.9983 -15.7431 16.9277
head 11.2651 -7.11195 6.83766
rclavicle 5.92627e-015 4.37326e-015
rhumerus -33.5032 -0.163631 -86.7872
rradius 23.1136
rwrist 29.39
rhand -10.5294 12.252
rfingers 7.12502
rthumb 15.4738 -17.1487
lclavicle 5.92627e-015 4.37326e-015
lhumerus -31.5574 -0.190641 92.7652
lradius 15.7865
lwrist -26.1079
lhand -11.3828 19.622
lfingers 7.12502
lthumb 14.6517 49.0843
rfemur 1.49648 9.273 18.9679
rtibia -3.18055e-015
rfoot -6.9623 -9.27385
rtoes -11.6955
lfemur -7.99583 -21.918 -15.2726
ltibia 14.7737
lfoot -13.2286 14.9608
ltoes -18.1743
74
root 0.177415 17.4907 0.399944 5.94897 2.43654 -1.44464
lowerback -3.27435 -0.271878 -1.58018
upperback -3.12981 -0.311312 2.15635
thorax -1.35826 -0.10307 3.09683
lowerneck -11.5168 -11.0148 -18.2678
upperneck 19.996 -15.7354 16.958
head 11.2719 -7.10613 6.85337
rclavicle 1.16041e-014 0
rhumerus -33.5167 -0.103756 -86.7921
rradius 23.0936
rwrist 29.2937
rhand -10.6405 12.2657
rfingers 7.12502
rthumb 15.3668 -17.1433
lclavicle 1.16041e-014 0
lhumerus -31.5724 -0.160682 92.7558
lradius 15.7684
lwrist -26.0737
lhand -11.497 19.6489
lfingers 7.12502
lthumb 14.5417 49.1192
rfemur 1.43421 9.29244 18.9886
rtibia -4.77083e-015
rfoot -6.95456 -9.25833
rtoes -12.0708
lfemur -8.07111 -21.9074 -15.1899
ltibia 14.7598
lfoot -13.0965 14.984
ltoes -18.6715
75
root 0.177089 17.4913 0.398831 5.97499 2.409 -1.44076
lowerback -3.26138 -0.279018 -1.58776
upperback -3.12819 -0.320806 2.15744
thorax -1.3632 -0.107645 3.10209
lowerneck -11.578 -11.0154 -18.2252
upperneck 19.989 -15.7253 16.9264
head 11.272 -7.09782 6.83322
rclavicle 2.48481e-017 2.22639e-014
rhumerus -33.5104 -0.0330612 -86.814
rradius 23.1019
rwrist 29.1918
rhand -10.6134 12.2934
rfingers 7.12502
rthumb 15.3929 -17.1136
lclavicle 2.48481e-017 2.22639e-014
lhumerus -31.5494 -0.0509801 92.7026
lradius 15.7331
lwrist -26.0871
lhand -11.5751 19.562
lfingers 7.12502
lthumb 14.4664 49.0377
rfemur 1.3963 9.31891 18.9777
rtibia -6.36111e-015
rfoot -6.96958 -9.26253
rtoes -12.5202
lfemur -8.12647 -21.894 -15.1657
ltibia 14.7837
lfoot -13.0376 14.9959
ltoes -18.9235
76
root 0.175425 17.4903 0.399259 5.96804 2.38301 -1.43713
lowerback -3.24182 -0.267697 -1.58157
upperback -3.10554 -0.306378 2.13416
thorax -1.35183 -0.101188 3.07481
lowerneck -11.6568 -11.0384 -18.1586
upperneck 19.9892 -15.7498 16.8895
head 11.2826 -7.10281 6.79961
rclavicle 3.35449e-015 -3.97569e-016
rhumerus -33.5223 -0.0484594 -86.8501
rradius 23.1516
rwrist 29.1038
rhand -10.5363 12.2748
rfingers 7.12502
rthumb 15.4671 -17.1265
lclavicle 3.35449e-015 -3.97569e-016
lhumerus -31.5077 -0.102734 92.6799
lradius 15.7071
lwrist -25.9691
lhand -11.5247 19.4893
lfingers 7.12502
lthumb 14.515 48.9615
rfemur 1.40475 9.34463 18.9755
rtibia 7.95139e-015
rfoot -6.98427 -9.26585
rtoes -12.2879
lfemur -8.11168 -21.8919 -15.2077
ltibia 14.8365
lfoot -13.144 15.0113
ltoes -18.5368
77
root 0.173801 17.4903 0.398904 5.95725 2.35218 -1.47251
lowerback -3.23045 -0.260527 -1.52619
upperback -3.0623 -0.298578 2.11623
thorax -1.31435 -0.099438 3.02504
lowerneck -11.7504 -11.0527 -18.0695
upperneck 19.9748 -15.7652 16.8656
head 11.2881 -7.1002 6.7682
rclavicle 4.96962e-016 2.5842e-014
rhumerus -33.5007 -0.124995 -86.872
rradius 23.2072
rwrist 29.1141
rhand -10.5441 12.2944
rfingers 7.12502
rthumb 15.4596 -17.1074
lclavicle 4.96962e-016 2.5842e-014
lhumerus -31.4316 -0.0325568 92.5875
lradius 15.6964
lwrist -26.006
lhand -11.4653 19.5507
lfingers 7.12502
lthumb 14.5722 49.0188
rfemur 1.4024 9.37946 19.0192
rtibia 9.54166e-015
rfoot -6.97875 -9.2846
rtoes -12.1143
lfemur -8.09992 -21.8795 -15.1992
ltibia 14.898
lfoot -13.2937 15.0011
ltoes -18.2991
78
root 0.173381 17.4907 0.397987 5.97912 2.32544 -1.50621
lowerback -3.25009 -0.271575 -1.47957
upperback -3.0431 -0.31436 2.11775
thorax -1.28271 -0.108773 2.99979
lowerneck -11.7714 -11.049 -18.0253
upperneck 19.9636 -15.7598 16.8499
head 11.2812 -7.09482 6.75463
rclavicle -5.61567e-015 -4.77083e-015
rhumerus -33.49 -0.143179 -86.8936
rradius 23.2382
rwrist 29.1501
rhand -10.5467 12.2773
rfingers 7.12502
rthumb 15.4571 -17.1247
lclavicle -5.61567e-015 -4.77083e-015
lhumerus -31.3837 0.178976 92.4702
lradius 15.6808
lwrist -26.1365
lhand -11.1865 19.9377
lfingers 7.12502
lthumb 14.8408 49.3862
rfemur 1.36609 9.40947 19.0554
rtibia -6.36111e-015
rfoot -6.9518 -9.26839
rtoes -12.395
lfemur -8.15487 -21.8647 -15.1502
ltibia 14.9389
lfoot -13.2417 15.0734
ltoes -18.8085
79
root 0.173371 17.4919 0.397453 6.0181 2.29405 -1.59821
lowerback -3.26413 -0.269059 -1.36338
upperback -3.05238 -0.31314 2.12783
thorax -1.2848 -0.109991 2.94469
lowerneck -11.7122 -11.039 -17.9861
upperneck 19.9242 -15.7535 16.8357
head 11.2484 -7.09401 6.74486
rclavicle -8.32411e-016 -1.23246e-014
rhumerus -33.4976 -0.168022 -86.909
rradius 23.236
rwrist 29.1494
rhand -10.4991 12.1691
rfingers 7.12502
rthumb 15.503 -17.2293
lclavicle -8.32411e-016 -1.23246e-014
lhumerus -31.3712 0.65835 92.2229
lradius 15.5724
lwrist -26.5548
lhand -10.6522 20.5883
lfingers 7.12502
lthumb 15.3555 49.9982
rfemur 1.31174 9.45002 19.1479
rtibia 1.43125e-014
rfoot -6.94087 -9.21718
rtoes -12.4077
lfemur -8.22412 -21.8372 -15.034
ltibia 14.9813
lfoot -13.2836 15.0472
ltoes -18.3489
80
root 0.172156 17.4914 0.397005 6.03072 2.28153 -1.59002
lowerback -3.24244 -0.269114 -1.37982
upperback -3.0522 -0.312995 2.12592
thorax -1.29671 -0.109515 2.95208
lowerneck -11.6568 -11.0228 -17.9935
upperneck 19.899 -15.7418 16.8669
head 11.2296 -7.08976 6.76206
rclavicle 3.32964e-015 -1.11319e-014
rhumerus -33.5074 -0.166476 -86.9157
rradius 23.2463
rwrist 29.1029
rhand -10.3861 12.0808
rfingers 7.12502
rthumb 15.6118 -17.3092
lclavicle 3.32964e-015 -1.11319e-014
lhumerus -31.3981 0.776148 92.1406
lradius 15.5357
lwrist -26.5361
lhand -10.3998 21.2844
lfingers 7.12502
lthumb 15.5986 50.6754
rfemur 1.29054 9.46135 19.1354
rtibia 0
rfoot -6.90192 -9.20968
rtoes -11.8929
lfemur -8.25187 -21.8434 -15.041
ltibia 15.0314
lfoot -13.297 15.0028
ltoes -18.1003
